<svg width="13" height="7" viewBox="0 0 13 7" fill="none" xmlns="http://www.w3.org/2000/svg">
<path d="M1.47493 3.1125C1.64992 2.19375 2.51242 1.5625 3.44992 1.5625H5.28118C5.60617 1.5625 5.87493 1.29375 5.87493 0.96875C5.87493 0.64375 5.60617 0.375 5.28118 0.375H3.51242C1.88117 0.375 0.424925 1.56875 0.268675 3.19375C0.087425 5.05625 1.54992 6.625 3.37493 6.625H5.28118C5.60617 6.625 5.87493 6.35625 5.87493 6.03125C5.87493 5.70625 5.60617 5.4375 5.28118 5.4375H3.37493C2.18117 5.4375 1.23743 4.35 1.47493 3.1125ZM4.62493 4.125H8.37492C8.71867 4.125 8.99992 3.84375 8.99992 3.5C8.99992 3.15625 8.71867 2.875 8.37492 2.875H4.62493C4.28118 2.875 3.99993 3.15625 3.99993 3.5C3.99993 3.84375 4.28118 4.125 4.62493 4.125ZM9.48743 0.375H7.71867C7.39367 0.375 7.12493 0.64375 7.12493 0.96875C7.12493 1.29375 7.39367 1.5625 7.71867 1.5625H9.54992C10.4874 1.5625 11.3499 2.19375 11.5249 3.1125C11.7624 4.35 10.8187 5.4375 9.62492 5.4375H7.71867C7.39367 5.4375 7.12493 5.70625 7.12493 6.03125C7.12493 6.35625 7.39367 6.625 7.71867 6.625H9.62492C11.4499 6.625 12.9124 5.05625 12.7374 3.19375C12.5812 1.56875 11.1187 0.375 9.48743 0.375Z" fill="white"/>
</svg>
